# AST/ASF file generated using VICON BodyLanguage
# -----------------------------------------------
:version 1.10
:name VICON
:units
  mass 1.0
  length 0.45
  angle deg
:documentation
   .ast/.asf automatically generated from VICON data using
   VICON BodyBuilder and BodyLanguage model FoxedUp or BRILLIANT.MOD
:root
   order TX TY TZ RX RY RZ
   axis XYZ
   position 0 0 0  
   orientation 0 0 0 
:bonedata
  begin
     id 1 
     name lhipjoint
     direction 0.588788 -0.725889 0.355548 
     length 2.37778 
     axis 0 0 0  XYZ
  end
  begin
     id 2 
     name lfemur
     direction 0.34202 -0.939693 0  
     length 6.86393  
     axis 0 0 20  XYZ
    dof rx ry rz
    limits (-160.0 20.0)
           (-70.0 70.0)
           (-60.0 70.0)
  end
  begin
     id 3 
     name ltibia
     direction 0.34202 -0.939693 0   
     length 7.32851   
     axis 0 0 20   XYZ
    dof rx
    limits (-10.0 170.0)
  end
  begin
     id 4 
     name lfoot
     direction 0.0626533 -0.172138 0.983078   
     length 1.98929   
     axis -90 7.62852e-016 20   XYZ
    dof rx rz
    limits (-45.0 90.0)
           (-70.0 20.0)
  end
  begin
     id 5 
     name ltoes
     direction 1.53647e-011 -4.21734e-011 1   
     length 1.00479   
     axis -90 7.62852e-016 20   XYZ
    dof rx
    limits (-90.0 20.0)
  end
  begin
     id 6 
     name rhipjoint
     direction -0.59141 -0.724168 0.354705   
     length 2.38343  
     axis 0 0 0  XYZ 
  end
  begin
     id 7 
     name rfemur
     direction -0.34202 -0.939693 0   
     length 6.95589   
     axis 0 0 -20   XYZ
    dof rx ry rz
    limits (-160.0 20.0)
           (-70.0 70.0)
           (-70.0 60.0)
  end
  begin
     id 8 
     name rtibia
     direction -0.34202 -0.939693 0   
     length 7.32327   
     axis 0 0 -20   XYZ
    dof rx
    limits (-10.0 170.0)
 end
 begin
     id 9 
     name rfoot
     direction -0.0660461 -0.18146 0.981178   
     length 1.85272  
     axis -90 -7.62852e-016 -20   XYZ
    dof rx rz
    limits (-45.0 90.0)
           (-20.0 70.0)
  end
  begin
     id 10 
     name rtoes
     direction -1.53586e-011 -4.21988e-011 1   
     length 0.93746   
     axis -90 -7.62852e-016 -20   XYZ
    dof rx
    limits (-90.0 20.0)
  end
  begin
     id 11 
     name lowerback
     direction -0.0107982 0.991059 0.13299   
     length 1.98691   
     axis 0 0 0   XYZ
    dof rx ry rz
    limits (-20.0 45.0)
           (-30.0 30.0)
           (-30.0 30.0)
  end
  begin
     id 12 
     name upperback
     direction 0.0076296 0.999916 0.0104576   
     length 1.99501   
     axis 0 0 0   XYZ
    dof rx ry rz
    limits (-20.0 45.0)
           (-30.0 30.0)
           (-30.0 30.0)
  end
  begin
     id 13 
     name thorax
     direction 0.01176 0.998615 -0.0512909   
     length 2.03144   
     axis 0 0 0   XYZ
    dof rx ry rz
    limits (-20.0 45.0)
           (-30.0 30.0)
           (-30.0 30.0)
  end
  begin
     id 14 
     name lowerneck
     direction -0.0171909 0.999644 0.0204011   
     length 1.71818   
     axis 0 0 0   XYZ
    dof rx ry rz
    limits (-20.0 45.0)
           (-30.0 30.0)
           (-30.0 30.0)
  end
  begin
     id 15 
     name upperneck
     direction 0.0250902 0.997482 -0.0663316   
     length 1.66199   
     axis 0 0 0   XYZ
    dof rx ry rz
    limits (-20.0 45.0)
           (-30.0 30.0)
           (-30.0 30.0)
  end
  begin
     id 16
     name head
     direction 0.00881535 0.99956 -0.0283365  
     length 1.81545  
     axis 0 0 0   XYZ
    dof rx ry rz
    limits (-20.0 45.0)
           (-30.0 30.0)
           (-30.0 30.0)
  end
  begin
     id 17 
     name lclavicle
     direction 0.840411 0.486876 -0.238035  
     length 3.30409  
     axis 0 0 0   XYZ
    dof ry rz
    limits (-20.0 10.0)
           (0.0 20.0)
  end
  begin
     id 18 
     name lhumerus
     direction 1 -4.48977e-011 -5.16239e-027   
     length 4.62672   
     axis 180 -30 -90   XYZ
    dof rx ry rz
    limits (-60.0 90.0)
           (-90.0 90.0)
           (-90.0 90.0)
  end
  begin
     id 19
     name lradius
     direction 1 -4.48977e-011 -8.71171e-027   
     length 3.11018   
     axis 180 -30 -90   XYZ
    dof rx
    limits (-10.0 170.0)
  end
  begin
     id 20
     name lwrist
     direction 1 -4.48912e-011 -1.03764e-026   
     length 1.55509   
     axis 9.09556e-015 90 90   XYZ
    dof ry
    limits (-180.0 0.0)
 end
  begin
     id 21 
     name lhand
     direction 1 -4.49072e-011 -2.07528e-026   
     length 0.743834   
     axis 1.3242e-014 90 90   XYZ
    dof rx rz
    limits (-90.0 90.0)
           (-45.0 45.0)
  end
  begin
     id 22 
     name lfingers
     direction 1 -4.48909e-011 -4.15056e-026   
     length 0.599698   
     axis 2.64841e-014 90 90   XYZ
    dof rx
    limits (0.0 90.0)
  end
  begin
     id 23
     name lthumb
     direction 0.707107 -6.35013e-011 0.707107   
     length 0.86105   
     axis -90 45 2.85299e-015   XYZ
    dof rx rz
    limits (-45.0 45.0)
           (-45.0 45.0)
  end
  begin
     id 24 
     name rclavicle
     direction -0.835208 0.500237 -0.228452   
     length 3.2716  
     axis 0 0 0   XYZ 
    dof ry rz
    limits (-10.0 20.0)
           (-20.0 0.0)
  end
  begin
     id 25 
     name rhumerus
     direction -1 -4.48978e-011 -5.1953e-028  
     length 4.55919   
     axis 180 30 90   XYZ
    dof rx ry rz
    limits (-90.0 60.0)
           (-90.0 90.0)
           (-90.0 90.0)
  end
  begin
     id 26 
     name rradius
     direction -1 -4.48961e-011 -5.99546e-027   
     length 3.22748   
     axis 180 30 90   XYZ
    dof rx
    limits (-10.0 170.0)
  end
  begin
     id 27 
     name rwrist
     direction -1 -4.48986e-011 -1.03764e-026   
     length 1.61374   
     axis 9.09556e-015 -90 -90   XYZ
    dof ry
    limits (-180.0 0.0)
  end
  begin
     id 28
     name rhand
     direction -1 -4.4899e-011 -2.07528e-026   
     length 0.700882   
     axis 1.3242e-014 -90 -90   XYZ
    dof rx rz
    limits (-90.0 90.0)
           (-45.0 45.0)
  end
  begin
     id 29
     name rfingers
     direction -1 -4.48991e-011 -4.15056e-026   
     length 0.565069   
     axis 2.64841e-014 -90 -90   XYZ
    dof rx
    limits (0.0 90.0)
  end
  begin
     id 30
     name rthumb
     direction -0.707107 -6.34804e-011 0.707107   
     length 0.811329   
     axis -90 -45 -2.85299e-015   XYZ
    dof rx rz
    limits (-45.0 45.0)
           (-45.0 45.0)
  end
:hierarchy
  begin
    root lhipjoint rhipjoint lowerback
    lhipjoint lfemur
    lfemur ltibia
    ltibia lfoot
    lfoot ltoes
    rhipjoint rfemur
    rfemur rtibia
    rtibia rfoot
    rfoot rtoes
    lowerback upperback
    upperback thorax
    thorax lowerneck lclavicle rclavicle
    lowerneck upperneck
    upperneck head
    lclavicle lhumerus
    lhumerus lradius
    lradius lwrist
    lwrist lhand lthumb
    lhand lfingers
    rclavicle rhumerus
    rhumerus rradius
    rradius rwrist
    rwrist rhand rthumb
    rhand rfingers
  end

#!OML:ASF F:\VICON\USERDATA\INSTALL\SteveWalk\SteveWalk.ASF
:FULLY-SPECIFIED
:DEGREES
223
root -0.280247 16.2878 5.75381 16.3892 4.63561 2.09673
lowerback -13.9138 -2.48836 -4.08931
upperback -4.74101 -2.74027 0.189418
thorax 2.98678 -1.34486 2.05623
lowerneck -4.32128 -1.45578 -0.437566
upperneck 9.12592 -2.14605 2.37646
head 3.76403 -0.97643 0.762897
rclavicle -6.75324e-015 1.68967e-015
rhumerus -90.8621 -40.7946 -4.28116
rradius 9.85498
rwrist 64.823
rhand -14.5087 -33.3979
rfingers 7.12502
rthumb 11.6386 -63.0546
lclavicle -6.75324e-015 1.68967e-015
lhumerus -18.9237 -9.58982 83.0015
lradius 39.0685
lwrist 2.40296
lhand -19.5578 -17.5776
lfingers 7.12502
lthumb 6.76672 12.2942
rfemur -48.6318 -6.27151 22.3101
rtibia 28.3439
rfoot -10.8654 -3.25924
rtoes -15.9004
lfemur -11.2714 7.35726 -25.1408
ltibia 25.4495
lfoot -26.705 -10.8474
ltoes -4.14966
224
root -0.26974 16.2644 5.97786 16.386 4.86969 2.20005
lowerback -14.1431 -2.51528 -3.98521
upperback -4.73793 -2.77721 0.169976
thorax 3.11059 -1.36515 1.9627
lowerneck -3.89014 -1.45694 -0.444125
upperneck 8.88665 -2.14275 2.40331
head 3.59632 -0.978755 0.774755
rclavicle -2.24636e-014 -1.93815e-014
rhumerus -93.1994 -39.5726 -0.996629
rradius 10.1132
rwrist 66.1816
rhand -15.4677 -31.9348
rfingers 7.12502
rthumb 10.7136 -61.6417
lclavicle -2.24636e-014 -1.93815e-014
lhumerus -18.5126 -10.1976 82.8899
lradius 40.4937
lwrist 3.32455
lhand -20.1852 -17.3076
lfingers 7.12502
lthumb 6.16103 12.5828
rfemur -48.669 -6.82947 22.5462
rtibia 25.708
rfoot -10.7712 -2.46326
rtoes -18.9504
lfemur -9.66094 7.37778 -25.0481
ltibia 24.1773
lfoot -26.4742 -11.0676
ltoes -4.60017
225
root -0.26615 16.2439 6.17806 16.5443 5.72185 2.49932
lowerback -14.0217 -2.77572 -4.10806
upperback -4.8171 -3.11109 0.180783
thorax 2.98988 -1.52702 1.99232
lowerneck -3.77615 -1.49532 -0.395695
upperneck 8.77575 -2.18512 2.29521
head 3.53352 -1.00409 0.729203
rclavicle -5.80038e-015 -3.27995e-015
rhumerus -91.7638 -38.8569 -3.58629
rradius 10.3792
rwrist 63.1514
rhand -15.0746 -32.8326
rfingers 7.12502
rthumb 11.0928 -62.5194
lclavicle -5.80038e-015 -3.27995e-015
lhumerus -17.9203 -10.6973 82.7638
lradius 41.7053
lwrist 4.3419
lhand -20.7994 -17.287
lfingers 7.12502
lthumb 5.56807 12.6199
rfemur -48.964 -7.89802 22.7723
rtibia 23.4788
rfoot -10.9132 -2.10385
rtoes -19.717
lfemur -8.32946 6.763 -25.0013
ltibia 22.8392
lfoot -25.9038 -11.6653
ltoes -2.97133
226
root -0.272273 16.235 6.3807 16.8134 6.62685 2.8421
lowerback -13.9016 -3.10581 -4.34661
upperback -4.85281 -3.52223 0.218066
thorax 2.92997 -1.72831 2.10092
lowerneck -4.20328 -1.55293 -0.361044
upperneck 8.81039 -2.25616 2.17345
head 3.62705 -1.03992 0.677497
rclavicle 3.01108e-014 1.29024e-014
rhumerus -92.7711 -38.5813 -2.05747
rradius 10.4622
rwrist 63.3781
rhand -13.6855 -34.7356
rfingers 7.12502
rthumb 12.4323 -64.3459
lclavicle 3.01108e-014 1.29024e-014
lhumerus -17.1194 -10.945 82.5273
lradius 42.8753
lwrist 5.48505
lhand -20.9987 -17.9996
lfingers 7.12502
lthumb 5.37563 11.9122
rfemur -49.3349 -8.44626 22.4965
rtibia 21.6116
rfoot -11.5835 -0.863832
rtoes -15.1154
lfemur -7.2178 5.96517 -24.966
ltibia 21.6116
lfoot -25.3692 -12.0627
ltoes -1.95145
227
root -0.27023 16.2191 6.59993 16.8511 7.21019 2.87572
lowerback -14.046 -3.27189 -4.19346
upperback -4.61526 -3.75314 0.298419
thorax 3.27039 -1.85187 2.04465
lowerneck -4.76477 -1.60439 -0.342795
upperneck 8.61252 -2.30815 1.99749
head 3.6646 -1.0702 0.610288
rclavicle 5.0581e-014 -7.15625e-015
rhumerus -95.4251 -38.6288 2.36812
rradius 10.3108
rwrist 66.0125
rhand -13.0325 -35.2843
rfingers 7.12502
rthumb 13.0619 -64.8553
lclavicle 5.0581e-014 -7.15625e-015
lhumerus -16.1631 -10.9423 82.2575
lradius 44.0619
lwrist 6.32334
lhand -21.1476 -18.5807
lfingers 7.12502
lthumb 5.2318 11.3347
rfemur -49.5379 -8.95207 22.6891
rtibia 20.1226
rfoot -12.1785 0.801095
rtoes -12.4895
lfemur -5.86207 5.57027 -24.6701
ltibia 20.529
lfoot -24.9816 -11.7704
ltoes -5.71912
228
root -0.263068 16.1951 6.81956 16.9568 7.8896 2.86242
lowerback -14.2895 -3.44113 -3.91258
upperback -4.47722 -4.00396 0.377907
thorax 3.55201 -1.98168 1.90869
lowerneck -5.04561 -1.62465 -0.219433
upperneck 8.41751 -2.31925 1.73834
head 3.64477 -1.08226 0.50082
rclavicle -2.70145e-015 -2.23633e-015
rhumerus -96.2758 -38.4451 3.79224
rradius 10.2437
rwrist 66.379
rhand -13.0886 -35.002
rfingers 7.12502
rthumb 13.0078 -64.5765
lclavicle -2.70145e-015 -2.23633e-015
lhumerus -15.6437 -10.7826 82.0929
lradius 45.3161
lwrist 6.67124
lhand -21.3113 -18.9586
lfingers 7.12502
lthumb 5.07377 10.9607
rfemur -49.8364 -9.9118 23.3339
rtibia 18.8428
rfoot -12.613 2.23521
rtoes -12.2885
lfemur -4.67993 4.99747 -24.3098
ltibia 19.6501
lfoot -24.5984 -11.3455
ltoes -9.92962
229
root -0.260737 16.1723 7.03984 17.2708 8.24366 2.98305
lowerback -14.5116 -3.54553 -3.84792
upperback -4.65567 -4.14403 0.421783
thorax 3.4912 -2.04698 1.88718
lowerneck -4.77322 -1.62926 -0.129286
upperneck 8.24842 -2.31024 1.5268
head 3.52745 -1.08627 0.418212
rclavicle 2.08475e-014 1.04362e-014
rhumerus -96.6 -37.8496 4.42885
rradius 10.2097
rwrist 66.054
rhand -13.0864 -34.8899
rfingers 7.12502
rthumb 13.0099 -64.4643
lclavicle 2.08475e-014 1.04362e-014
lhumerus -15.7009 -10.703 82.0418
lradius 46.6233
lwrist 6.9827
lhand -21.5412 -19.4136
lfingers 7.12502
lthumb 4.85179 10.5109
rfemur -50.2307 -10.3649 23.5846
rtibia 17.6985
rfoot -13.2698 3.75265
rtoes -7.73041
lfemur -3.89812 4.40701 -24.1874
ltibia 19.1285
lfoot -24.3894 -10.8616
ltoes -13.1854
